
<svg width="19"  height="19" viewBox="0 0 19 19" fill="none" xmlns="http://www.w3.org/2000/svg">

    <g clip-path="url(#clip0_3872_32435)">

        <path
            d="M3.5625 1.78125V17.2188H12.5476L11.3601 16.0312H4.75V2.96875H10.6875V6.53125H14.25V10.6875H15.4375V5.69165L11.5271 1.78125H3.5625ZM11.875 3.80835L13.4104 5.34375H11.875V3.80835ZM9.086 7.12616C8.63534 7.11013 8.31125 7.36666 8.21625 7.79297C8.09512 8.33566 8.38167 9.32106 8.86914 10.3257C8.85311 10.3815 8.83593 10.438 8.81811 10.4962C8.6299 11.1172 8.40881 11.6827 8.18378 12.1696C7.4119 12.413 6.74573 12.7192 6.37701 13.0416C5.88598 13.4697 5.79405 13.9882 6.12537 14.4193C6.32665 14.6966 6.60479 14.8438 6.90582 14.8438C7.02457 14.8438 7.14702 14.8205 7.27112 14.7742C7.79956 14.5741 8.36945 13.8156 8.8587 12.8561C9.34202 12.7272 9.85193 12.6274 10.3234 12.5627C10.7265 13.0175 11.1412 13.358 11.5236 13.4927C12.074 13.6863 12.5873 13.5122 12.8978 13.0289L12.9013 13.0231C13.2065 12.5297 13.0106 12.1366 12.7262 11.933C12.3515 11.6646 11.6014 11.5963 10.7339 11.6639C10.4133 11.2376 10.1074 10.7312 9.8479 10.2283C10.0759 9.34002 10.1712 8.52582 10.059 8.00867C9.88677 7.21304 9.311 7.12616 9.08716 7.12616H9.086ZM9.10803 8.04694C9.14841 8.14134 9.17886 8.31622 9.17529 8.57806C9.11829 8.35719 9.09378 8.174 9.10803 8.04694ZM9.47681 11.4193C9.55696 11.5475 9.64066 11.6721 9.72498 11.7938C9.58426 11.8188 9.44126 11.8476 9.30054 11.8773C9.36169 11.7259 9.42099 11.5724 9.47681 11.4193ZM15.4549 11.875V16.0312H13.0799L16.0486 19L19.0174 16.0312H16.6424V11.875H15.4549ZM11.4981 12.4792C11.7736 12.4845 11.9859 12.5161 12.1023 12.5754C12.0987 12.582 12.0943 12.5892 12.0895 12.5975C12.0147 12.7138 11.9821 12.7618 11.7683 12.6531C11.6798 12.6086 11.5895 12.5498 11.4981 12.4792ZM7.55872 13.3211C7.29628 13.726 7.0728 13.9669 6.94989 13.996C6.9493 13.9954 6.93217 13.9844 6.89655 13.9357C6.86567 13.8954 6.81368 13.8285 7.0589 13.6307C7.19427 13.5209 7.36397 13.4179 7.55872 13.3211Z"
            fill="#2728FF" />

    </g>

    <defs>

        <clipPath id="clip0_3872_32435">

            <rect width="19" height="19" fill="white" />

        </clipPath>

    </defs>

</svg>
